<mxfile host="app.diagrams.net" modified="2023-06-11T18:04:02.575Z" agent="Mozilla/5.0 (Windows NT 10.0; Win64; x64) AppleWebKit/537.36 (KHTML, like Gecko) Chrome/114.0.0.0 Safari/537.36" etag="d-m3tqXYiixcSnn2lzFn" version="21.3.8" type="github">
  <diagram name="Página-1" id="xhw7fp3F8fv-ghbMesje">
    <mxGraphModel dx="662" dy="-15" grid="0" gridSize="10" guides="1" tooltips="1" connect="1" arrows="1" fold="1" page="0" pageScale="1" pageWidth="827" pageHeight="1169" background="none" math="0" shadow="0">
      <root>
        <mxCell id="0" />
        <mxCell id="1" parent="0" />
        <mxCell id="l91UxbfRl4ldA1w1L3f1-15" value="Carrera" style="shape=table;startSize=30;container=1;collapsible=1;childLayout=tableLayout;fixedRows=1;rowLines=0;fontStyle=1;align=center;resizeLast=1;html=1;labelBackgroundColor=none;fillColor=#182E3E;strokeColor=#FFFFFF;fontColor=#FFFFFF;rounded=1;" parent="1" vertex="1">
          <mxGeometry x="394" y="958" width="180" height="90" as="geometry" />
        </mxCell>
        <mxCell id="l91UxbfRl4ldA1w1L3f1-16" value="" style="shape=tableRow;horizontal=0;startSize=0;swimlaneHead=0;swimlaneBody=0;fillColor=none;collapsible=0;dropTarget=0;points=[[0,0.5],[1,0.5]];portConstraint=eastwest;top=0;left=0;right=0;bottom=1;labelBackgroundColor=none;strokeColor=#FFFFFF;fontColor=#FFFFFF;rounded=1;" parent="l91UxbfRl4ldA1w1L3f1-15" vertex="1">
          <mxGeometry y="30" width="180" height="30" as="geometry" />
        </mxCell>
        <mxCell id="l91UxbfRl4ldA1w1L3f1-17" value="PK" style="shape=partialRectangle;connectable=0;fillColor=none;top=0;left=0;bottom=0;right=0;fontStyle=1;overflow=hidden;whiteSpace=wrap;html=1;labelBackgroundColor=none;strokeColor=#FFFFFF;fontColor=#FFFFFF;rounded=1;" parent="l91UxbfRl4ldA1w1L3f1-16" vertex="1">
          <mxGeometry width="30" height="30" as="geometry">
            <mxRectangle width="30" height="30" as="alternateBounds" />
          </mxGeometry>
        </mxCell>
        <mxCell id="l91UxbfRl4ldA1w1L3f1-18" value="ID" style="shape=partialRectangle;connectable=0;fillColor=none;top=0;left=0;bottom=0;right=0;align=left;spacingLeft=6;fontStyle=5;overflow=hidden;whiteSpace=wrap;html=1;labelBackgroundColor=none;strokeColor=#FFFFFF;fontColor=#FFFFFF;rounded=1;" parent="l91UxbfRl4ldA1w1L3f1-16" vertex="1">
          <mxGeometry x="30" width="150" height="30" as="geometry">
            <mxRectangle width="150" height="30" as="alternateBounds" />
          </mxGeometry>
        </mxCell>
        <mxCell id="l91UxbfRl4ldA1w1L3f1-19" value="" style="shape=tableRow;horizontal=0;startSize=0;swimlaneHead=0;swimlaneBody=0;fillColor=none;collapsible=0;dropTarget=0;points=[[0,0.5],[1,0.5]];portConstraint=eastwest;top=0;left=0;right=0;bottom=0;labelBackgroundColor=none;strokeColor=#FFFFFF;fontColor=#FFFFFF;rounded=1;" parent="l91UxbfRl4ldA1w1L3f1-15" vertex="1">
          <mxGeometry y="60" width="180" height="30" as="geometry" />
        </mxCell>
        <mxCell id="l91UxbfRl4ldA1w1L3f1-20" value="" style="shape=partialRectangle;connectable=0;fillColor=none;top=0;left=0;bottom=0;right=0;editable=1;overflow=hidden;whiteSpace=wrap;html=1;labelBackgroundColor=none;strokeColor=#FFFFFF;fontColor=#FFFFFF;rounded=1;" parent="l91UxbfRl4ldA1w1L3f1-19" vertex="1">
          <mxGeometry width="30" height="30" as="geometry">
            <mxRectangle width="30" height="30" as="alternateBounds" />
          </mxGeometry>
        </mxCell>
        <mxCell id="l91UxbfRl4ldA1w1L3f1-21" value="nombre" style="shape=partialRectangle;connectable=0;fillColor=none;top=0;left=0;bottom=0;right=0;align=left;spacingLeft=6;overflow=hidden;whiteSpace=wrap;html=1;labelBackgroundColor=none;strokeColor=#FFFFFF;fontColor=#FFFFFF;rounded=1;" parent="l91UxbfRl4ldA1w1L3f1-19" vertex="1">
          <mxGeometry x="30" width="150" height="30" as="geometry">
            <mxRectangle width="150" height="30" as="alternateBounds" />
          </mxGeometry>
        </mxCell>
        <mxCell id="U3cgZ2RMG8MK_IVuVhTK-5" value="usuarios" style="shape=table;startSize=30;container=1;collapsible=1;childLayout=tableLayout;fixedRows=1;rowLines=0;fontStyle=1;align=center;resizeLast=1;html=1;labelBackgroundColor=none;fillColor=#182E3E;strokeColor=#FFFFFF;fontColor=#FFFFFF;rounded=1;" parent="1" vertex="1">
          <mxGeometry x="180" y="720" width="140" height="270" as="geometry" />
        </mxCell>
        <mxCell id="U3cgZ2RMG8MK_IVuVhTK-6" value="" style="shape=tableRow;horizontal=0;startSize=0;swimlaneHead=0;swimlaneBody=0;fillColor=none;collapsible=0;dropTarget=0;points=[[0,0.5],[1,0.5]];portConstraint=eastwest;top=0;left=0;right=0;bottom=1;labelBackgroundColor=none;strokeColor=#FFFFFF;fontColor=#FFFFFF;rounded=1;" parent="U3cgZ2RMG8MK_IVuVhTK-5" vertex="1">
          <mxGeometry y="30" width="140" height="30" as="geometry" />
        </mxCell>
        <mxCell id="U3cgZ2RMG8MK_IVuVhTK-7" value="PK" style="shape=partialRectangle;connectable=0;fillColor=none;top=0;left=0;bottom=0;right=0;fontStyle=1;overflow=hidden;whiteSpace=wrap;html=1;labelBackgroundColor=none;strokeColor=#FFFFFF;fontColor=#FFFFFF;rounded=1;" parent="U3cgZ2RMG8MK_IVuVhTK-6" vertex="1">
          <mxGeometry width="30" height="30" as="geometry">
            <mxRectangle width="30" height="30" as="alternateBounds" />
          </mxGeometry>
        </mxCell>
        <mxCell id="U3cgZ2RMG8MK_IVuVhTK-8" value="ID" style="shape=partialRectangle;connectable=0;fillColor=none;top=0;left=0;bottom=0;right=0;align=left;spacingLeft=6;fontStyle=5;overflow=hidden;whiteSpace=wrap;html=1;labelBackgroundColor=none;strokeColor=#FFFFFF;fontColor=#FFFFFF;rounded=1;" parent="U3cgZ2RMG8MK_IVuVhTK-6" vertex="1">
          <mxGeometry x="30" width="110" height="30" as="geometry">
            <mxRectangle width="110" height="30" as="alternateBounds" />
          </mxGeometry>
        </mxCell>
        <mxCell id="U3cgZ2RMG8MK_IVuVhTK-9" value="" style="shape=tableRow;horizontal=0;startSize=0;swimlaneHead=0;swimlaneBody=0;fillColor=none;collapsible=0;dropTarget=0;points=[[0,0.5],[1,0.5]];portConstraint=eastwest;top=0;left=0;right=0;bottom=0;labelBackgroundColor=none;strokeColor=#FFFFFF;fontColor=#FFFFFF;rounded=1;" parent="U3cgZ2RMG8MK_IVuVhTK-5" vertex="1">
          <mxGeometry y="60" width="140" height="30" as="geometry" />
        </mxCell>
        <mxCell id="U3cgZ2RMG8MK_IVuVhTK-10" value="" style="shape=partialRectangle;connectable=0;fillColor=none;top=0;left=0;bottom=0;right=0;editable=1;overflow=hidden;whiteSpace=wrap;html=1;labelBackgroundColor=none;strokeColor=#FFFFFF;fontColor=#FFFFFF;rounded=1;" parent="U3cgZ2RMG8MK_IVuVhTK-9" vertex="1">
          <mxGeometry width="30" height="30" as="geometry">
            <mxRectangle width="30" height="30" as="alternateBounds" />
          </mxGeometry>
        </mxCell>
        <mxCell id="U3cgZ2RMG8MK_IVuVhTK-11" value="usuario" style="shape=partialRectangle;connectable=0;fillColor=none;top=0;left=0;bottom=0;right=0;align=left;spacingLeft=6;overflow=hidden;whiteSpace=wrap;html=1;labelBackgroundColor=none;strokeColor=#FFFFFF;fontColor=#FFFFFF;rounded=1;" parent="U3cgZ2RMG8MK_IVuVhTK-9" vertex="1">
          <mxGeometry x="30" width="110" height="30" as="geometry">
            <mxRectangle width="110" height="30" as="alternateBounds" />
          </mxGeometry>
        </mxCell>
        <mxCell id="U3cgZ2RMG8MK_IVuVhTK-12" value="" style="shape=tableRow;horizontal=0;startSize=0;swimlaneHead=0;swimlaneBody=0;fillColor=none;collapsible=0;dropTarget=0;points=[[0,0.5],[1,0.5]];portConstraint=eastwest;top=0;left=0;right=0;bottom=0;labelBackgroundColor=none;strokeColor=#FFFFFF;fontColor=#FFFFFF;rounded=1;" parent="U3cgZ2RMG8MK_IVuVhTK-5" vertex="1">
          <mxGeometry y="90" width="140" height="30" as="geometry" />
        </mxCell>
        <mxCell id="U3cgZ2RMG8MK_IVuVhTK-13" value="" style="shape=partialRectangle;connectable=0;fillColor=none;top=0;left=0;bottom=0;right=0;editable=1;overflow=hidden;whiteSpace=wrap;html=1;labelBackgroundColor=none;strokeColor=#FFFFFF;fontColor=#FFFFFF;rounded=1;" parent="U3cgZ2RMG8MK_IVuVhTK-12" vertex="1">
          <mxGeometry width="30" height="30" as="geometry">
            <mxRectangle width="30" height="30" as="alternateBounds" />
          </mxGeometry>
        </mxCell>
        <mxCell id="U3cgZ2RMG8MK_IVuVhTK-14" value="contraseña" style="shape=partialRectangle;connectable=0;fillColor=none;top=0;left=0;bottom=0;right=0;align=left;spacingLeft=6;overflow=hidden;whiteSpace=wrap;html=1;labelBackgroundColor=none;strokeColor=#FFFFFF;fontColor=#FFFFFF;rounded=1;" parent="U3cgZ2RMG8MK_IVuVhTK-12" vertex="1">
          <mxGeometry x="30" width="110" height="30" as="geometry">
            <mxRectangle width="110" height="30" as="alternateBounds" />
          </mxGeometry>
        </mxCell>
        <mxCell id="7z_xflElnIpAljUZP6L4-14" value="" style="shape=tableRow;horizontal=0;startSize=0;swimlaneHead=0;swimlaneBody=0;fillColor=none;collapsible=0;dropTarget=0;points=[[0,0.5],[1,0.5]];portConstraint=eastwest;top=0;left=0;right=0;bottom=0;labelBackgroundColor=none;strokeColor=#FFFFFF;fontColor=#FFFFFF;rounded=1;" vertex="1" parent="U3cgZ2RMG8MK_IVuVhTK-5">
          <mxGeometry y="120" width="140" height="30" as="geometry" />
        </mxCell>
        <mxCell id="7z_xflElnIpAljUZP6L4-15" value="" style="shape=partialRectangle;connectable=0;fillColor=none;top=0;left=0;bottom=0;right=0;editable=1;overflow=hidden;whiteSpace=wrap;html=1;labelBackgroundColor=none;strokeColor=#FFFFFF;fontColor=#FFFFFF;rounded=1;" vertex="1" parent="7z_xflElnIpAljUZP6L4-14">
          <mxGeometry width="30" height="30" as="geometry">
            <mxRectangle width="30" height="30" as="alternateBounds" />
          </mxGeometry>
        </mxCell>
        <mxCell id="7z_xflElnIpAljUZP6L4-16" value="nombre" style="shape=partialRectangle;connectable=0;fillColor=none;top=0;left=0;bottom=0;right=0;align=left;spacingLeft=6;overflow=hidden;whiteSpace=wrap;html=1;labelBackgroundColor=none;strokeColor=#FFFFFF;fontColor=#FFFFFF;rounded=1;" vertex="1" parent="7z_xflElnIpAljUZP6L4-14">
          <mxGeometry x="30" width="110" height="30" as="geometry">
            <mxRectangle width="110" height="30" as="alternateBounds" />
          </mxGeometry>
        </mxCell>
        <mxCell id="7z_xflElnIpAljUZP6L4-21" value="" style="shape=tableRow;horizontal=0;startSize=0;swimlaneHead=0;swimlaneBody=0;fillColor=none;collapsible=0;dropTarget=0;points=[[0,0.5],[1,0.5]];portConstraint=eastwest;top=0;left=0;right=0;bottom=0;labelBackgroundColor=none;strokeColor=#FFFFFF;fontColor=#FFFFFF;rounded=1;" vertex="1" parent="U3cgZ2RMG8MK_IVuVhTK-5">
          <mxGeometry y="150" width="140" height="30" as="geometry" />
        </mxCell>
        <mxCell id="7z_xflElnIpAljUZP6L4-22" value="" style="shape=partialRectangle;connectable=0;fillColor=none;top=0;left=0;bottom=0;right=0;editable=1;overflow=hidden;whiteSpace=wrap;html=1;labelBackgroundColor=none;strokeColor=#FFFFFF;fontColor=#FFFFFF;rounded=1;" vertex="1" parent="7z_xflElnIpAljUZP6L4-21">
          <mxGeometry width="30" height="30" as="geometry">
            <mxRectangle width="30" height="30" as="alternateBounds" />
          </mxGeometry>
        </mxCell>
        <mxCell id="7z_xflElnIpAljUZP6L4-23" value="apellido" style="shape=partialRectangle;connectable=0;fillColor=none;top=0;left=0;bottom=0;right=0;align=left;spacingLeft=6;overflow=hidden;whiteSpace=wrap;html=1;labelBackgroundColor=none;strokeColor=#FFFFFF;fontColor=#FFFFFF;rounded=1;" vertex="1" parent="7z_xflElnIpAljUZP6L4-21">
          <mxGeometry x="30" width="110" height="30" as="geometry">
            <mxRectangle width="110" height="30" as="alternateBounds" />
          </mxGeometry>
        </mxCell>
        <mxCell id="7z_xflElnIpAljUZP6L4-25" value="" style="shape=tableRow;horizontal=0;startSize=0;swimlaneHead=0;swimlaneBody=0;fillColor=none;collapsible=0;dropTarget=0;points=[[0,0.5],[1,0.5]];portConstraint=eastwest;top=0;left=0;right=0;bottom=0;labelBackgroundColor=none;strokeColor=#FFFFFF;fontColor=#FFFFFF;rounded=1;" vertex="1" parent="U3cgZ2RMG8MK_IVuVhTK-5">
          <mxGeometry y="180" width="140" height="30" as="geometry" />
        </mxCell>
        <mxCell id="7z_xflElnIpAljUZP6L4-26" value="" style="shape=partialRectangle;connectable=0;fillColor=none;top=0;left=0;bottom=0;right=0;editable=1;overflow=hidden;whiteSpace=wrap;html=1;labelBackgroundColor=none;strokeColor=#FFFFFF;fontColor=#FFFFFF;rounded=1;" vertex="1" parent="7z_xflElnIpAljUZP6L4-25">
          <mxGeometry width="30" height="30" as="geometry">
            <mxRectangle width="30" height="30" as="alternateBounds" />
          </mxGeometry>
        </mxCell>
        <mxCell id="7z_xflElnIpAljUZP6L4-27" value="correo" style="shape=partialRectangle;connectable=0;fillColor=none;top=0;left=0;bottom=0;right=0;align=left;spacingLeft=6;overflow=hidden;whiteSpace=wrap;html=1;labelBackgroundColor=none;strokeColor=#FFFFFF;fontColor=#FFFFFF;rounded=1;" vertex="1" parent="7z_xflElnIpAljUZP6L4-25">
          <mxGeometry x="30" width="110" height="30" as="geometry">
            <mxRectangle width="110" height="30" as="alternateBounds" />
          </mxGeometry>
        </mxCell>
        <mxCell id="7z_xflElnIpAljUZP6L4-28" value="" style="shape=tableRow;horizontal=0;startSize=0;swimlaneHead=0;swimlaneBody=0;fillColor=none;collapsible=0;dropTarget=0;points=[[0,0.5],[1,0.5]];portConstraint=eastwest;top=0;left=0;right=0;bottom=0;labelBackgroundColor=none;strokeColor=#FFFFFF;fontColor=#FFFFFF;rounded=1;" vertex="1" parent="U3cgZ2RMG8MK_IVuVhTK-5">
          <mxGeometry y="210" width="140" height="30" as="geometry" />
        </mxCell>
        <mxCell id="7z_xflElnIpAljUZP6L4-29" value="" style="shape=partialRectangle;connectable=0;fillColor=none;top=0;left=0;bottom=0;right=0;editable=1;overflow=hidden;whiteSpace=wrap;html=1;labelBackgroundColor=none;strokeColor=#FFFFFF;fontColor=#FFFFFF;rounded=1;" vertex="1" parent="7z_xflElnIpAljUZP6L4-28">
          <mxGeometry width="30" height="30" as="geometry">
            <mxRectangle width="30" height="30" as="alternateBounds" />
          </mxGeometry>
        </mxCell>
        <mxCell id="7z_xflElnIpAljUZP6L4-30" value="id rol" style="shape=partialRectangle;connectable=0;fillColor=none;top=0;left=0;bottom=0;right=0;align=left;spacingLeft=6;overflow=hidden;whiteSpace=wrap;html=1;labelBackgroundColor=none;strokeColor=#FFFFFF;fontColor=#FFFFFF;rounded=1;" vertex="1" parent="7z_xflElnIpAljUZP6L4-28">
          <mxGeometry x="30" width="110" height="30" as="geometry">
            <mxRectangle width="110" height="30" as="alternateBounds" />
          </mxGeometry>
        </mxCell>
        <mxCell id="7z_xflElnIpAljUZP6L4-31" value="" style="shape=tableRow;horizontal=0;startSize=0;swimlaneHead=0;swimlaneBody=0;fillColor=none;collapsible=0;dropTarget=0;points=[[0,0.5],[1,0.5]];portConstraint=eastwest;top=0;left=0;right=0;bottom=0;labelBackgroundColor=none;strokeColor=#FFFFFF;fontColor=#FFFFFF;rounded=1;" vertex="1" parent="U3cgZ2RMG8MK_IVuVhTK-5">
          <mxGeometry y="240" width="140" height="30" as="geometry" />
        </mxCell>
        <mxCell id="7z_xflElnIpAljUZP6L4-32" value="" style="shape=partialRectangle;connectable=0;fillColor=none;top=0;left=0;bottom=0;right=0;editable=1;overflow=hidden;whiteSpace=wrap;html=1;labelBackgroundColor=none;strokeColor=#FFFFFF;fontColor=#FFFFFF;rounded=1;" vertex="1" parent="7z_xflElnIpAljUZP6L4-31">
          <mxGeometry width="30" height="30" as="geometry">
            <mxRectangle width="30" height="30" as="alternateBounds" />
          </mxGeometry>
        </mxCell>
        <mxCell id="7z_xflElnIpAljUZP6L4-33" value="id asignatura" style="shape=partialRectangle;connectable=0;fillColor=none;top=0;left=0;bottom=0;right=0;align=left;spacingLeft=6;overflow=hidden;whiteSpace=wrap;html=1;labelBackgroundColor=none;strokeColor=#FFFFFF;fontColor=#FFFFFF;rounded=1;" vertex="1" parent="7z_xflElnIpAljUZP6L4-31">
          <mxGeometry x="30" width="110" height="30" as="geometry">
            <mxRectangle width="110" height="30" as="alternateBounds" />
          </mxGeometry>
        </mxCell>
        <mxCell id="U3cgZ2RMG8MK_IVuVhTK-31" value="roles" style="shape=table;startSize=30;container=1;collapsible=1;childLayout=tableLayout;fixedRows=1;rowLines=0;fontStyle=1;align=center;resizeLast=1;html=1;labelBackgroundColor=none;fillColor=#182E3E;strokeColor=#FFFFFF;fontColor=#FFFFFF;rounded=1;" parent="1" vertex="1">
          <mxGeometry x="388" y="720" width="180" height="90" as="geometry" />
        </mxCell>
        <mxCell id="U3cgZ2RMG8MK_IVuVhTK-32" value="" style="shape=tableRow;horizontal=0;startSize=0;swimlaneHead=0;swimlaneBody=0;fillColor=none;collapsible=0;dropTarget=0;points=[[0,0.5],[1,0.5]];portConstraint=eastwest;top=0;left=0;right=0;bottom=1;labelBackgroundColor=none;strokeColor=#FFFFFF;fontColor=#FFFFFF;rounded=1;" parent="U3cgZ2RMG8MK_IVuVhTK-31" vertex="1">
          <mxGeometry y="30" width="180" height="30" as="geometry" />
        </mxCell>
        <mxCell id="U3cgZ2RMG8MK_IVuVhTK-33" value="PK" style="shape=partialRectangle;connectable=0;fillColor=none;top=0;left=0;bottom=0;right=0;fontStyle=1;overflow=hidden;whiteSpace=wrap;html=1;labelBackgroundColor=none;strokeColor=#FFFFFF;fontColor=#FFFFFF;rounded=1;" parent="U3cgZ2RMG8MK_IVuVhTK-32" vertex="1">
          <mxGeometry width="30" height="30" as="geometry">
            <mxRectangle width="30" height="30" as="alternateBounds" />
          </mxGeometry>
        </mxCell>
        <mxCell id="U3cgZ2RMG8MK_IVuVhTK-34" value="ID" style="shape=partialRectangle;connectable=0;fillColor=none;top=0;left=0;bottom=0;right=0;align=left;spacingLeft=6;fontStyle=5;overflow=hidden;whiteSpace=wrap;html=1;labelBackgroundColor=none;strokeColor=#FFFFFF;fontColor=#FFFFFF;rounded=1;" parent="U3cgZ2RMG8MK_IVuVhTK-32" vertex="1">
          <mxGeometry x="30" width="150" height="30" as="geometry">
            <mxRectangle width="150" height="30" as="alternateBounds" />
          </mxGeometry>
        </mxCell>
        <mxCell id="U3cgZ2RMG8MK_IVuVhTK-35" value="" style="shape=tableRow;horizontal=0;startSize=0;swimlaneHead=0;swimlaneBody=0;fillColor=none;collapsible=0;dropTarget=0;points=[[0,0.5],[1,0.5]];portConstraint=eastwest;top=0;left=0;right=0;bottom=0;labelBackgroundColor=none;strokeColor=#FFFFFF;fontColor=#FFFFFF;rounded=1;" parent="U3cgZ2RMG8MK_IVuVhTK-31" vertex="1">
          <mxGeometry y="60" width="180" height="30" as="geometry" />
        </mxCell>
        <mxCell id="U3cgZ2RMG8MK_IVuVhTK-36" value="" style="shape=partialRectangle;connectable=0;fillColor=none;top=0;left=0;bottom=0;right=0;editable=1;overflow=hidden;whiteSpace=wrap;html=1;labelBackgroundColor=none;strokeColor=#FFFFFF;fontColor=#FFFFFF;rounded=1;" parent="U3cgZ2RMG8MK_IVuVhTK-35" vertex="1">
          <mxGeometry width="30" height="30" as="geometry">
            <mxRectangle width="30" height="30" as="alternateBounds" />
          </mxGeometry>
        </mxCell>
        <mxCell id="U3cgZ2RMG8MK_IVuVhTK-37" value="tipo" style="shape=partialRectangle;connectable=0;fillColor=none;top=0;left=0;bottom=0;right=0;align=left;spacingLeft=6;overflow=hidden;whiteSpace=wrap;html=1;labelBackgroundColor=none;strokeColor=#FFFFFF;fontColor=#FFFFFF;rounded=1;" parent="U3cgZ2RMG8MK_IVuVhTK-35" vertex="1">
          <mxGeometry x="30" width="150" height="30" as="geometry">
            <mxRectangle width="150" height="30" as="alternateBounds" />
          </mxGeometry>
        </mxCell>
        <mxCell id="7z_xflElnIpAljUZP6L4-1" value="asignaturas" style="shape=table;startSize=30;container=1;collapsible=1;childLayout=tableLayout;fixedRows=1;rowLines=0;fontStyle=1;align=center;resizeLast=1;html=1;labelBackgroundColor=none;fillColor=#182E3E;strokeColor=#FFFFFF;fontColor=#FFFFFF;rounded=1;" vertex="1" parent="1">
          <mxGeometry x="388" y="840" width="180" height="90" as="geometry" />
        </mxCell>
        <mxCell id="7z_xflElnIpAljUZP6L4-2" value="" style="shape=tableRow;horizontal=0;startSize=0;swimlaneHead=0;swimlaneBody=0;fillColor=none;collapsible=0;dropTarget=0;points=[[0,0.5],[1,0.5]];portConstraint=eastwest;top=0;left=0;right=0;bottom=1;labelBackgroundColor=none;strokeColor=#FFFFFF;fontColor=#FFFFFF;rounded=1;" vertex="1" parent="7z_xflElnIpAljUZP6L4-1">
          <mxGeometry y="30" width="180" height="30" as="geometry" />
        </mxCell>
        <mxCell id="7z_xflElnIpAljUZP6L4-3" value="PK" style="shape=partialRectangle;connectable=0;fillColor=none;top=0;left=0;bottom=0;right=0;fontStyle=1;overflow=hidden;whiteSpace=wrap;html=1;labelBackgroundColor=none;strokeColor=#FFFFFF;fontColor=#FFFFFF;rounded=1;" vertex="1" parent="7z_xflElnIpAljUZP6L4-2">
          <mxGeometry width="30" height="30" as="geometry">
            <mxRectangle width="30" height="30" as="alternateBounds" />
          </mxGeometry>
        </mxCell>
        <mxCell id="7z_xflElnIpAljUZP6L4-4" value="ID" style="shape=partialRectangle;connectable=0;fillColor=none;top=0;left=0;bottom=0;right=0;align=left;spacingLeft=6;fontStyle=5;overflow=hidden;whiteSpace=wrap;html=1;labelBackgroundColor=none;strokeColor=#FFFFFF;fontColor=#FFFFFF;rounded=1;" vertex="1" parent="7z_xflElnIpAljUZP6L4-2">
          <mxGeometry x="30" width="150" height="30" as="geometry">
            <mxRectangle width="150" height="30" as="alternateBounds" />
          </mxGeometry>
        </mxCell>
        <mxCell id="7z_xflElnIpAljUZP6L4-5" value="" style="shape=tableRow;horizontal=0;startSize=0;swimlaneHead=0;swimlaneBody=0;fillColor=none;collapsible=0;dropTarget=0;points=[[0,0.5],[1,0.5]];portConstraint=eastwest;top=0;left=0;right=0;bottom=0;labelBackgroundColor=none;strokeColor=#FFFFFF;fontColor=#FFFFFF;rounded=1;" vertex="1" parent="7z_xflElnIpAljUZP6L4-1">
          <mxGeometry y="60" width="180" height="30" as="geometry" />
        </mxCell>
        <mxCell id="7z_xflElnIpAljUZP6L4-6" value="" style="shape=partialRectangle;connectable=0;fillColor=none;top=0;left=0;bottom=0;right=0;editable=1;overflow=hidden;whiteSpace=wrap;html=1;labelBackgroundColor=none;strokeColor=#FFFFFF;fontColor=#FFFFFF;rounded=1;" vertex="1" parent="7z_xflElnIpAljUZP6L4-5">
          <mxGeometry width="30" height="30" as="geometry">
            <mxRectangle width="30" height="30" as="alternateBounds" />
          </mxGeometry>
        </mxCell>
        <mxCell id="7z_xflElnIpAljUZP6L4-7" value="nombre" style="shape=partialRectangle;connectable=0;fillColor=none;top=0;left=0;bottom=0;right=0;align=left;spacingLeft=6;overflow=hidden;whiteSpace=wrap;html=1;labelBackgroundColor=none;strokeColor=#FFFFFF;fontColor=#FFFFFF;rounded=1;" vertex="1" parent="7z_xflElnIpAljUZP6L4-5">
          <mxGeometry x="30" width="150" height="30" as="geometry">
            <mxRectangle width="150" height="30" as="alternateBounds" />
          </mxGeometry>
        </mxCell>
        <mxCell id="7z_xflElnIpAljUZP6L4-17" style="edgeStyle=orthogonalEdgeStyle;rounded=1;orthogonalLoop=1;jettySize=auto;html=1;entryX=0;entryY=0.5;entryDx=0;entryDy=0;strokeColor=#23445D;" edge="1" parent="1" source="7z_xflElnIpAljUZP6L4-14" target="U3cgZ2RMG8MK_IVuVhTK-32">
          <mxGeometry relative="1" as="geometry" />
        </mxCell>
        <mxCell id="7z_xflElnIpAljUZP6L4-24" style="edgeStyle=orthogonalEdgeStyle;rounded=1;orthogonalLoop=1;jettySize=auto;html=1;strokeColor=#23445D;" edge="1" parent="1" source="7z_xflElnIpAljUZP6L4-21" target="7z_xflElnIpAljUZP6L4-2">
          <mxGeometry relative="1" as="geometry" />
        </mxCell>
        <mxCell id="7z_xflElnIpAljUZP6L4-34" value="asignatura_carrera" style="shape=table;startSize=30;container=1;collapsible=1;childLayout=tableLayout;fixedRows=1;rowLines=0;fontStyle=1;align=center;resizeLast=1;html=1;rounded=1;strokeColor=#FFFFFF;fontColor=#FFFFFF;fillColor=#182E3E;" vertex="1" parent="1">
          <mxGeometry x="671" y="862" width="180" height="120" as="geometry" />
        </mxCell>
        <mxCell id="7z_xflElnIpAljUZP6L4-35" value="" style="shape=tableRow;horizontal=0;startSize=0;swimlaneHead=0;swimlaneBody=0;fillColor=none;collapsible=0;dropTarget=0;points=[[0,0.5],[1,0.5]];portConstraint=eastwest;top=0;left=0;right=0;bottom=1;rounded=1;strokeColor=#FFFFFF;fontColor=#FFFFFF;" vertex="1" parent="7z_xflElnIpAljUZP6L4-34">
          <mxGeometry y="30" width="180" height="30" as="geometry" />
        </mxCell>
        <mxCell id="7z_xflElnIpAljUZP6L4-36" value="PK" style="shape=partialRectangle;connectable=0;fillColor=none;top=0;left=0;bottom=0;right=0;fontStyle=1;overflow=hidden;whiteSpace=wrap;html=1;rounded=1;strokeColor=#FFFFFF;fontColor=#FFFFFF;" vertex="1" parent="7z_xflElnIpAljUZP6L4-35">
          <mxGeometry width="30" height="30" as="geometry">
            <mxRectangle width="30" height="30" as="alternateBounds" />
          </mxGeometry>
        </mxCell>
        <mxCell id="7z_xflElnIpAljUZP6L4-37" value="ID" style="shape=partialRectangle;connectable=0;fillColor=none;top=0;left=0;bottom=0;right=0;align=left;spacingLeft=6;fontStyle=5;overflow=hidden;whiteSpace=wrap;html=1;rounded=1;strokeColor=#FFFFFF;fontColor=#FFFFFF;" vertex="1" parent="7z_xflElnIpAljUZP6L4-35">
          <mxGeometry x="30" width="150" height="30" as="geometry">
            <mxRectangle width="150" height="30" as="alternateBounds" />
          </mxGeometry>
        </mxCell>
        <mxCell id="7z_xflElnIpAljUZP6L4-38" value="" style="shape=tableRow;horizontal=0;startSize=0;swimlaneHead=0;swimlaneBody=0;fillColor=none;collapsible=0;dropTarget=0;points=[[0,0.5],[1,0.5]];portConstraint=eastwest;top=0;left=0;right=0;bottom=0;rounded=1;strokeColor=#FFFFFF;fontColor=#FFFFFF;" vertex="1" parent="7z_xflElnIpAljUZP6L4-34">
          <mxGeometry y="60" width="180" height="30" as="geometry" />
        </mxCell>
        <mxCell id="7z_xflElnIpAljUZP6L4-39" value="" style="shape=partialRectangle;connectable=0;fillColor=none;top=0;left=0;bottom=0;right=0;editable=1;overflow=hidden;whiteSpace=wrap;html=1;rounded=1;strokeColor=#FFFFFF;fontColor=#FFFFFF;" vertex="1" parent="7z_xflElnIpAljUZP6L4-38">
          <mxGeometry width="30" height="30" as="geometry">
            <mxRectangle width="30" height="30" as="alternateBounds" />
          </mxGeometry>
        </mxCell>
        <mxCell id="7z_xflElnIpAljUZP6L4-40" value="id carrera" style="shape=partialRectangle;connectable=0;fillColor=none;top=0;left=0;bottom=0;right=0;align=left;spacingLeft=6;overflow=hidden;whiteSpace=wrap;html=1;rounded=1;strokeColor=#FFFFFF;fontColor=#FFFFFF;" vertex="1" parent="7z_xflElnIpAljUZP6L4-38">
          <mxGeometry x="30" width="150" height="30" as="geometry">
            <mxRectangle width="150" height="30" as="alternateBounds" />
          </mxGeometry>
        </mxCell>
        <mxCell id="7z_xflElnIpAljUZP6L4-41" value="" style="shape=tableRow;horizontal=0;startSize=0;swimlaneHead=0;swimlaneBody=0;fillColor=none;collapsible=0;dropTarget=0;points=[[0,0.5],[1,0.5]];portConstraint=eastwest;top=0;left=0;right=0;bottom=0;rounded=1;strokeColor=#FFFFFF;fontColor=#FFFFFF;" vertex="1" parent="7z_xflElnIpAljUZP6L4-34">
          <mxGeometry y="90" width="180" height="30" as="geometry" />
        </mxCell>
        <mxCell id="7z_xflElnIpAljUZP6L4-42" value="" style="shape=partialRectangle;connectable=0;fillColor=none;top=0;left=0;bottom=0;right=0;editable=1;overflow=hidden;whiteSpace=wrap;html=1;rounded=1;strokeColor=#FFFFFF;fontColor=#FFFFFF;" vertex="1" parent="7z_xflElnIpAljUZP6L4-41">
          <mxGeometry width="30" height="30" as="geometry">
            <mxRectangle width="30" height="30" as="alternateBounds" />
          </mxGeometry>
        </mxCell>
        <mxCell id="7z_xflElnIpAljUZP6L4-43" value="id asignatura" style="shape=partialRectangle;connectable=0;fillColor=none;top=0;left=0;bottom=0;right=0;align=left;spacingLeft=6;overflow=hidden;whiteSpace=wrap;html=1;rounded=1;strokeColor=#FFFFFF;fontColor=#FFFFFF;" vertex="1" parent="7z_xflElnIpAljUZP6L4-41">
          <mxGeometry x="30" width="150" height="30" as="geometry">
            <mxRectangle width="150" height="30" as="alternateBounds" />
          </mxGeometry>
        </mxCell>
        <mxCell id="7z_xflElnIpAljUZP6L4-47" style="edgeStyle=orthogonalEdgeStyle;rounded=1;orthogonalLoop=1;jettySize=auto;html=1;entryX=0;entryY=0.5;entryDx=0;entryDy=0;strokeColor=#23445D;" edge="1" parent="1" source="7z_xflElnIpAljUZP6L4-2" target="7z_xflElnIpAljUZP6L4-38">
          <mxGeometry relative="1" as="geometry" />
        </mxCell>
        <mxCell id="7z_xflElnIpAljUZP6L4-48" style="edgeStyle=orthogonalEdgeStyle;rounded=1;orthogonalLoop=1;jettySize=auto;html=1;strokeColor=#23445D;" edge="1" parent="1" source="l91UxbfRl4ldA1w1L3f1-16" target="7z_xflElnIpAljUZP6L4-41">
          <mxGeometry relative="1" as="geometry" />
        </mxCell>
      </root>
    </mxGraphModel>
  </diagram>
</mxfile>
